<svg data-name="Layer 1" xmlns="http://www.w3.org/2000/svg" viewBox="0 0 200 200"><path d="M49.076 61.174a23.52 23.52 0 0 0 1.783 4.93c-1.08 1.583-6.223 9.537-6.498 11.085a.756.756 0 0 0 .236.662c.925.786 9.16 7.841 9.59 7.918l.547-.08a78.534 78.534 0 0 0 9.625-8.22c.844.239 1.689.477 2.549.63s1.734.221 2.609.288c.63 1.443 5.563 11.103 6.68 11.302.43.077 10.61-3.787 11.734-4.12a.756.756 0 0 0 .45-.54c.26-1.462-1.803-10.788-2.271-12.646a23.511 23.511 0 0 0 3.376-4.012c1.75.135 13.055.907 13.285-.383l2.144-12.037c.23-1.29-10.647-4.469-12.336-4.946a21.139 21.139 0 0 0-1.784-4.93c1.081-1.583 6.239-9.623 6.499-11.085a.756.756 0 0 0-.236-.663c-.925-.785-9.145-7.926-9.575-8.003-1.117-.199-9.097 7.25-10.187 8.386-.844-.24-1.69-.478-2.548-.631s-1.735-.22-2.61-.288c-.631-1.442-5.548-11.188-6.666-11.387-.43-.077-10.61 3.787-11.748 4.205a.657.657 0 0 0-.451.54c-.276 1.547 1.804 10.788 2.272 12.647a21.134 21.134 0 0 0-3.376 4.011c-1.75-.135-13.056-.907-13.286.383L36.74 56.228c-.23 1.29 10.647 4.468 12.336 4.946zm10.746-7.045a11.178 11.178 0 1 1 9.045 12.966 11.2 11.2 0 0 1-9.045-12.966zM187.176 127.291l-12.09-5.87a46.426 46.426 0 0 0-.838-7.74c3.415-2.522 6.862-4.85 10.251-7.286a2.98 2.98 0 0 0 1.068-1.41c.738-2.424-6.4-14.363-7.96-17.03a2.82 2.82 0 0 0-1.552-1.203 2.515 2.515 0 0 0-1.849.078l-12.122 4.434a43 43 0 0 0-5.478-4.497l1.97-13.369a2.71 2.71 0 0 0-1.87-2.85l-15.54-4.73a2.782 2.782 0 0 0-3.117 1.241 87.225 87.225 0 0 0-5.863 12.365 37.339 37.339 0 0 0-7.222.632l-7.319-10.443a3.29 3.29 0 0 0-1.576-1.12c-2.423-.738-14.883 6.607-17.24 8.354a2.307 2.307 0 0 0-1.069 1.41 3.019 3.019 0 0 0 .076 1.85c1.707 3.987 3.273 7.842 4.594 11.896a39.703 39.703 0 0 0-4.606 5.536l-13.56-1.937a2.722 2.722 0 0 0-2.684 1.92l-4.705 15.457a2.706 2.706 0 0 0 1.242 3.117l12.115 5.787a56.349 56.349 0 0 0 .755 7.715c-3.331 2.547-6.754 4.791-10.168 7.311a2.98 2.98 0 0 0-1.068 1.41c-.712 2.34 6.4 14.363 7.962 17.03a2.82 2.82 0 0 0 1.55 1.203 2.668 2.668 0 0 0 1.85-.078l12.122-4.434a43.002 43.002 0 0 0 5.478 4.497l-1.97 13.369a2.709 2.709 0 0 0 1.87 2.85l15.54 4.73a2.782 2.782 0 0 0 3.117-1.241 87.701 87.701 0 0 0 5.838-12.282 45.412 45.412 0 0 0 7.247-.715l7.319 10.443a3.291 3.291 0 0 0 1.576 1.12c2.423.738 14.857-6.524 17.215-8.271a2.67 2.67 0 0 0 1.093-1.492 3.252 3.252 0 0 0-.075-1.85c-1.708-3.988-3.273-7.844-4.595-11.898a39.711 39.711 0 0 0 4.606-5.535l13.56 1.937a2.722 2.722 0 0 0 2.685-1.922l4.705-15.456a2.54 2.54 0 0 0-1.268-3.033zm-33.129.871a22.357 22.357 0 1 1-14.877-27.898 22.4 22.4 0 0 1 14.877 27.898zM67.113 141.37a21.134 21.134 0 0 0-.678-5.2c1.397-1.311 8.168-8.05 8.738-9.42a.756.756 0 0 0-.088-.698c-.734-.967-7.22-9.713-7.623-9.88-1.048-.436-10.447 5.116-11.756 5.99-.773-.416-1.546-.831-2.352-1.166s-1.647-.59-2.486-.844c-.305-1.544-3.004-12.122-4.052-12.557-.403-.168-11.177 1.409-12.38 1.57a.657.657 0 0 0-.556.43c-.603 1.453-.566 10.924-.51 12.84a21.146 21.146 0 0 0-4.162 3.188c-1.68-.51-12.552-3.702-13.055-2.492l-4.69 11.29c-.503 1.21 9.432 6.661 10.978 7.492a23.525 23.525 0 0 0 .678 5.2c-1.397 1.312-8.134 7.97-8.737 9.42a.756.756 0 0 0 .088.699c.733.966 7.252 9.632 7.655 9.8l.551.04a78.549 78.549 0 0 0 11.172-5.95c.773.415 1.547.83 2.353 1.166s1.646.59 2.486.844c.305 1.544 3.037 12.04 4.085 12.476.403.168 11.177-1.409 12.346-1.49a.756.756 0 0 0 .556-.43c.57-1.372.567-10.924.51-12.84a23.514 23.514 0 0 0 4.163-3.188c1.68.51 12.552 3.703 13.055 2.492l4.69-11.29c.502-1.211-9.432-6.661-10.979-7.492zM55.1 145.93a11.178 11.178 0 1 1-6.035-14.611A11.257 11.257 0 0 1 55.1 145.93z"/></svg>